<svg width="55" height="56" viewBox="0 0 55 56" fill="none" xmlns="http://www.w3.org/2000/svg">
<circle cx="27.5" cy="28.4592" r="27.5" fill="black"/>
<path d="M27.5 14.9592C19.4936 14.9592 13 21.3861 13 29.3131C13 35.6551 17.1542 41.0355 22.9168 42.9338C23.6406 43.0665 23.875 42.6216 23.875 42.2436V39.5714C19.8416 40.4398 19.0018 37.8776 19.0018 37.8776C18.342 36.2185 17.3911 35.7771 17.3911 35.7771C16.0752 34.886 17.4914 34.9051 17.4914 34.9051C18.9474 35.0056 19.7135 36.3848 19.7135 36.3848C21.0064 38.5786 23.1053 37.9446 23.933 37.5774C24.0623 36.6503 24.4381 36.0164 24.8538 35.6587C21.6335 35.2939 18.2478 34.063 18.2478 28.5643C18.2478 26.9961 18.8145 25.7162 19.7413 24.7115C19.5915 24.349 19.0948 22.8885 19.8827 20.9125C19.8827 20.9125 21.1007 20.5273 23.8714 22.3837C25.0278 22.0656 26.2675 21.9065 27.5 21.9005C28.7325 21.9065 29.9735 22.0656 31.1322 22.3837C33.9005 20.5273 35.1161 20.9125 35.1161 20.9125C35.9052 22.8897 35.4085 24.3502 35.2587 24.7115C36.1891 25.7162 36.751 26.9973 36.751 28.5643C36.751 34.0774 33.3592 35.2915 30.1305 35.6468C30.6501 36.0917 31.125 36.9649 31.125 38.3046V42.2436C31.125 42.6252 31.357 43.0737 32.0929 42.9326C37.8506 41.0319 42 35.6527 42 29.3131C42 21.3861 35.5076 14.9592 27.5 14.9592Z" fill="white"/>
</svg>
