<svg width="31" height="31" viewBox="0 0 31 31" fill="none" xmlns="http://www.w3.org/2000/svg">
<path d="M15.5 7.45066C11.0616 7.45066 7.45066 11.0616 7.45066 15.5C7.45066 19.9384 11.0616 23.5462 15.5 23.5462C19.9384 23.5462 23.5462 19.9353 23.5462 15.5C23.5493 11.0616 19.9384 7.45066 15.5 7.45066ZM15.5 20.4776C12.7542 20.4776 10.5224 18.2458 10.5224 15.5C10.5224 12.7542 12.7542 10.5224 15.5 10.5224C18.2458 10.5224 20.4776 12.7542 20.4776 15.5C20.4776 18.2458 18.2458 20.4776 15.5 20.4776ZM22.0793 0H8.92073C4.00273 0 0 4.00273 0 8.92073V22.0793C0 26.9973 4.00273 31 8.92073 31H22.0793C26.9973 31 31 26.9973 31 22.0793V8.92073C31 4.00273 27.0004 0 22.0793 0ZM27.9313 22.0793C27.9313 25.3047 25.3047 27.9282 22.0793 27.9282H8.92073C5.69535 27.9282 3.07179 25.3047 3.07179 22.0793V8.92073C3.07179 5.69535 5.69535 3.07179 8.92073 3.07179H22.0793C25.3047 3.07179 27.9282 5.69535 27.9282 8.92073V22.0793H27.9313ZM23.659 5.12487C22.4993 5.12487 21.5527 6.06835 21.5527 7.23124C21.5527 8.391 22.4962 9.33761 23.659 9.33761C24.8188 9.33761 25.7654 8.39414 25.7654 7.23124C25.7654 6.06835 24.8188 5.12487 23.659 5.12487Z" fill="black"/>
</svg>
