<svg width="31" height="31" viewBox="0 0 31 31" fill="none" xmlns="http://www.w3.org/2000/svg">
<path d="M28.7078 0H2.2922C1.02668 0 0 0.995429 0 2.22466V28.7789C0 30.0081 1.02668 31 2.2922 31H28.7078C29.9733 31 31 30.0081 31 28.7789V2.22112C30.9964 0.995429 29.9698 0 28.7078 0ZM9.39696 25.9449H4.71631V11.9522H9.39696V25.9449ZM7.05842 10.0429H7.02633C5.45423 10.0429 4.44181 8.96949 4.44181 7.62336C4.44181 6.24889 5.48988 5.20386 7.08694 5.20386C8.69112 5.20386 9.67502 6.24889 9.70354 7.62336C9.70354 8.96949 8.69112 10.0429 7.05842 10.0429ZM26.2801 25.9449H21.5959V18.4597C21.5959 16.5787 20.9221 15.2963 19.2288 15.2963C17.9312 15.2963 17.1612 16.1607 16.8226 16.9967C16.7014 17.2978 16.6728 17.7158 16.6728 18.1303V25.952H11.9886C11.9886 25.952 12.0492 13.27 11.9886 11.9558H16.6728V13.936C17.2931 12.9831 18.4089 11.6263 20.8901 11.6263C23.9701 11.6263 26.2801 13.6278 26.2801 17.9284V25.9449Z" fill="black"/>
</svg>
