<svg width="55" height="56" viewBox="0 0 55 56" fill="none" xmlns="http://www.w3.org/2000/svg">
<circle cx="27.5" cy="28.4592" r="27.5" fill="black"/>
<path d="M38.2254 16.9592H17.7746C16.7948 16.9592 16 17.7298 16 18.6815V39.2396C16 40.1913 16.7948 40.9592 17.7746 40.9592H38.2254C39.2052 40.9592 40 40.1913 40 39.2396V18.6787C39.9972 17.7298 39.2024 16.9592 38.2254 16.9592ZM23.2751 37.0456H19.6513V26.2125H23.2751V37.0456ZM21.4646 24.7343H21.4397C20.2226 24.7343 19.4388 23.9033 19.4388 22.8611C19.4388 21.797 20.2502 20.988 21.4867 20.988C22.7286 20.988 23.4903 21.797 23.5124 22.8611C23.5124 23.9033 22.7286 24.7343 21.4646 24.7343ZM36.3459 37.0456H32.7194V31.2506C32.7194 29.7943 32.1978 28.8015 30.8868 28.8015C29.8822 28.8015 29.2861 29.4707 29.0239 30.1179C28.9301 30.351 28.908 30.6746 28.908 30.9955V37.051H25.2815C25.2815 37.051 25.3284 27.2327 25.2815 26.2153H28.908V27.7483C29.3882 27.0106 30.2521 25.9602 32.173 25.9602C34.5575 25.9602 36.3459 27.5097 36.3459 30.8392V37.0456Z" fill="white"/>
</svg>
