<svg width="55" height="56" viewBox="0 0 55 56" fill="none" xmlns="http://www.w3.org/2000/svg">
<circle cx="27.5" cy="28.4592" r="27.5" fill="black"/>
<path fill-rule="evenodd" clip-rule="evenodd" d="M17.9646 22.8354C17.9958 22.5412 17.8781 22.251 17.649 22.0535L15.3156 19.361V18.9592H22.5635L28.1656 30.7214L33.0906 18.9592H40V19.361L38.0042 21.1929C37.8323 21.3186 37.7469 21.525 37.7823 21.7294V35.1899C37.7469 35.3933 37.8323 35.5997 38.0042 35.7254L39.9531 37.5573V37.9592H30.149V37.5573L32.1687 35.6805C32.3667 35.4911 32.3667 35.4352 32.3667 35.145V24.2654L26.7531 37.9153H25.9948L19.4583 24.2654V33.4138C19.4042 33.7978 19.5375 34.1857 19.8198 34.4629L22.4458 37.5124V37.9153H15V37.5124L17.626 34.4629C17.9073 34.1847 18.0323 33.7948 17.9646 33.4138V22.8354Z" fill="white"/>
</svg>
