<svg width="47" height="40" viewBox="0 0 47 40" fill="none" xmlns="http://www.w3.org/2000/svg">
<path d="M45.7498 15.7304L40.6512 12.1423C40.7042 11.9992 40.7201 11.8243 40.7148 11.6547C40.7095 10.4145 40.7148 9.16904 40.7148 7.92884C40.7148 6.68864 40.7201 5.44314 40.7148 4.20294C40.7095 3.51394 40.5081 3.29664 39.8244 3.29664C38.1973 3.29134 36.5649 3.29134 34.9378 3.29664C34.2647 3.30194 34.058 3.51924 34.0527 4.21354L34.0474 7.49954L23.9615 0.397541C23.2142 -0.127159 23.1559 -0.132459 22.4245 0.38164L9.52959 9.46054C6.54569 11.5593 3.55119 13.6634 0.561994 15.7728C-0.0422062 16.1968 -0.148206 16.5095 0.190994 17.0024C1.16619 18.4228 2.14669 19.8379 3.14309 21.2371C3.28089 21.4279 3.52469 21.5392 3.74199 21.7088C4.01759 21.5498 4.24549 21.4332 4.45219 21.2901L5.53339 20.5269C5.49099 20.67 5.46979 20.829 5.46979 21.0039C5.48039 26.8392 5.47509 32.6798 5.48039 38.5151C5.48039 39.4373 5.68709 39.6493 6.59339 39.6493H17.6121C18.5502 39.6493 18.7092 39.4797 18.7092 38.5257V22.9331H27.6609V38.5999C27.6609 39.4532 27.8517 39.6493 28.6785 39.6493H39.7502C40.5717 39.6493 40.7837 39.432 40.7837 38.6105C40.7837 32.6851 40.7784 26.7597 40.789 20.8396C40.789 20.7071 40.7731 20.5905 40.7519 20.4792L41.9285 21.3113C42.6175 21.7989 42.8878 21.7459 43.3648 21.0622L46.0201 17.2462C46.5501 16.4936 46.5024 16.2604 45.7498 15.7304Z" fill="white"/>
</svg>
