<svg width="55" height="56" viewBox="0 0 55 56" fill="none" xmlns="http://www.w3.org/2000/svg">
<circle cx="27.5" cy="28.4592" r="27.5" fill="black"/>
<path d="M28 22.7274C24.5638 22.7274 21.7683 25.523 21.7683 28.9592C21.7683 32.3954 24.5638 35.1885 28 35.1885C31.4362 35.1885 34.2293 32.3929 34.2293 28.9592C34.2317 25.523 31.4362 22.7274 28 22.7274ZM28 32.8128C25.8742 32.8128 24.1464 31.085 24.1464 28.9592C24.1464 26.8334 25.8742 25.1056 28 25.1056C30.1258 25.1056 31.8536 26.8334 31.8536 28.9592C31.8536 31.085 30.1258 32.8128 28 32.8128ZM33.0936 16.9592H22.9064C19.0989 16.9592 16 20.0581 16 23.8655V34.0528C16 37.8603 19.0989 40.9592 22.9064 40.9592H33.0936C36.9011 40.9592 40 37.8603 40 34.0528V23.8655C40 20.0581 36.9035 16.9592 33.0936 16.9592ZM37.6243 34.0528C37.6243 36.5499 35.5907 38.581 33.0936 38.581H22.9064C20.4093 38.581 18.3782 36.5499 18.3782 34.0528V23.8655C18.3782 21.3685 20.4093 19.3373 22.9064 19.3373H33.0936C35.5907 19.3373 37.6218 21.3685 37.6218 23.8655V34.0528H37.6243ZM34.3167 20.9268C33.4188 20.9268 32.6859 21.6572 32.6859 22.5575C32.6859 23.4554 33.4164 24.1883 34.3167 24.1883C35.2146 24.1883 35.9474 23.4579 35.9474 22.5575C35.9474 21.6572 35.2146 20.9268 34.3167 20.9268Z" fill="white"/>
</svg>
