<svg width="34" height="27" viewBox="0 0 34 27" fill="none" xmlns="http://www.w3.org/2000/svg">
<path fill-rule="evenodd" clip-rule="evenodd" d="M4.03183 5.50827C4.07433 5.09022 3.91425 4.67785 3.60258 4.39726L0.42925 0.571091V0H10.2864L17.9052 16.7147L24.6033 0H34V0.571091L31.2857 3.1743C31.0519 3.35286 30.9357 3.6462 30.9839 3.9367V23.0647C30.9357 23.3538 31.0519 23.6471 31.2857 23.8257L33.9362 26.4289V27H20.6026V26.4289L23.3495 23.7619C23.6187 23.4927 23.6187 23.4133 23.6187 23.0009V7.54039L15.9842 26.9376H14.9529L6.06333 7.54039V20.5409C5.98967 21.0864 6.171 21.6377 6.55492 22.0317L10.1263 26.3651V26.9376H0V26.3651L3.57142 22.0317C3.95392 21.6363 4.12392 21.0822 4.03183 20.5409V5.50827Z" fill="black"/>
</svg>
