<svg width="38" height="32" viewBox="0 0 38 32" fill="none" xmlns="http://www.w3.org/2000/svg">
<path d="M37.6121 2.1414C37.6121 1.8232 37.5648 1.4792 37.4358 1.1954C37.0445 0.309599 36.2877 0 35.3675 0H2.4123C0.7697 0 0.0129 0.7439 0.0129 2.3779V16.3658C0.0129 20.7389 0.0129 25.1163 0 29.4894C0 30.1172 0.1548 30.6719 0.602 31.1191C1.0879 31.5921 1.677 31.6996 2.3263 31.6996H25.2195C28.6122 31.6996 32.0178 31.7125 35.4105 31.6996C36.7693 31.6996 37.6207 30.8826 37.6207 29.5582C37.625 20.425 37.625 11.2832 37.6121 2.1414ZM10.3802 2.4725C11.0553 2.4725 11.3864 2.8036 11.395 3.4658C11.395 4.1409 11.0768 4.4591 10.4146 4.472C9.718 4.472 9.4213 4.1882 9.4213 3.4916C9.4256 2.795 9.718 2.4854 10.3802 2.4725ZM6.9402 2.4725C7.6153 2.4725 7.9077 2.7778 7.9077 3.4787C7.9077 4.1882 7.6368 4.472 6.9402 4.472C6.2651 4.472 5.9469 4.1538 5.9469 3.4787C5.9469 2.8165 6.278 2.4854 6.9402 2.4725ZM3.4529 2.4854C4.1151 2.4725 4.4677 2.8036 4.4806 3.4658C4.4935 4.128 4.1495 4.4591 3.4873 4.472C2.7993 4.472 2.494 4.1753 2.4811 3.5045C2.4725 2.8294 2.8036 2.4854 3.4529 2.4854ZM36.6446 29.3647C36.6446 30.3709 36.3135 30.702 35.3202 30.702H2.2704C1.3373 30.702 0.9933 30.358 0.9933 29.412V6.966H36.6446V29.3647Z" fill="white"/>
</svg>
